<svg xmlns="http://www.w3.org/2000/svg" viewBox="0 0 100 110" fill="none">
  <!-- Red Swoosh -->
  <path
    d="M 28 58 
       C 24 78, 45 98, 70 88 
       C 86 80, 90 52, 74 25 
       C 70 17, 63 8, 60 2 
       C 61 14, 69 28, 72 40 
       C 76 54, 70 72, 58 79 
       C 48 85, 34 79, 32 65 
       C 31 59, 32 52, 34 47 
       C 35 44, 33 44, 32 45
       C 29 49, 28 54, 28 58 Z"
    fill="#E53935"
  />
  <!-- Black Droplet -->
  <path
    d="M 54 26
       C 49 39, 36 54, 36 69
       C 36 81, 45 89, 56 89
       C 67 89, 76 81, 76 69
       C 76 57, 64 42, 54 26 Z"
    fill="#111111"
  />
  <!-- White Highlight -->
  <path
    d="M 43 58 
       C 40 66, 42 72, 47 77 
       C 44 74, 42 68, 44 61 
       C 45 58, 46 55, 48 52
       C 46 54, 44 56, 43 58 Z"
    fill="#FFFFFF"
  />
</svg>
